PathFileType	4	(X/Y/Z)	/Users/itak/Documents/Research/Walk-IL/dataset/trc/00071_00006.trc
DataRate	CameraRate	NumFrames	NumMarkers	Units	OrigDataRate	OrigDataStartFrame	OrigNumFrames
100.000000	100.000000	4	53	mm	100.000000	637	729
Frame#	Time	RPSI			LPSI			L3			STRN			T10			C7			CLAV			RBAK			LBAK			LSHO			LUPA			LAEL			LAOL			LWTS			LWPS			LFRA			LIFD			LHPS			LHTS			RSHO			RUPA			RAEL			RAOL			RWTS			RWPS			RFRA			RIFD			RHTS			RHPS			RBHD			LFHD			RFHD			LBHD			LHIP			RHIP			RASI			LASI			LKNE			LTHI			LANK			LTIP			LTOE			LMT1			LMT5			LHEE			RKNE			RTHI			RANK			RTIP			RTOE			RMT1			RMT5			RHEE			
		X1	Y1	Z1	X2	Y2	Z2	X3	Y3	Z3	X4	Y4	Z4	X5	Y5	Z5	X6	Y6	Z6	X7	Y7	Z7	X8	Y8	Z8	X9	Y9	Z9	X10	Y10	Z10	X11	Y11	Z11	X12	Y12	Z12	X13	Y13	Z13	X14	Y14	Z14	X15	Y15	Z15	X16	Y16	Z16	X17	Y17	Z17	X18	Y18	Z18	X19	Y19	Z19	X20	Y20	Z20	X21	Y21	Z21	X22	Y22	Z22	X23	Y23	Z23	X24	Y24	Z24	X25	Y25	Z25	X26	Y26	Z26	X27	Y27	Z27	X28	Y28	Z28	X29	Y29	Z29	X30	Y30	Z30	X31	Y31	Z31	X32	Y32	Z32	X33	Y33	Z33	X34	Y34	Z34	X35	Y35	Z35	X36	Y36	Z36	X37	Y37	Z37	X38	Y38	Z38	X39	Y39	Z39	X40	Y40	Z40	X41	Y41	Z41	X42	Y42	Z42	X43	Y43	Z43	X44	Y44	Z44	X45	Y45	Z45	X46	Y46	Z46	X47	Y47	Z47	X48	Y48	Z48	X49	Y49	Z49	X50	Y50	Z50	X51	Y51	Z51	X52	Y52	Z52	X53	Y53	Z53	

638	6.37	347.5230407714844	1032.085693359375	965.44482421875	379.48974609375	1020.883422851562	1137.095703125	363.4487609863281	1086.4443359375	1059.03955078125	119.8939056396484	1292.633544921875	1085.264770507812	385.2032165527344	1218.241943359375	1066.871459960938	334.6473388671875	1487.1474609375	1068.858154296875	152.0225372314453	1406.794799804688	1080.770751953125	388.4822387695312	1345.346557617188	993.6611938476562	363.7017211914062	1451.485961914062	1168.004272460938	267.6010131835938	1464.2451171875	1247.134155273438	283.8411865234375	1340.182861328125	1328.885131835938	246.2283172607422	1130.614013671875	1364.853393554688	297.3082580566406	1103.63720703125	1275.041259765625	110.7970657348633	907.8490600585938	1323.340209960938	173.7133941650391	887.704833984375	1375.070434570312	210.7689514160156	1025.858032226562	1379.848754882812	65.11036682128906	730.4356689453125	1309.983276367188	125.2513961791992	814.0885620117188	1378.197631835938	72.97611999511719	832.7574462890625	1334.628173828125	259.4554138183594	1448.044677734375	899.7586059570312	268.0381469726562	1378.45068359375	838.6060791015625	298.6932983398438	1116.385131835938	807.10009765625	278.0813598632812	1093.444702148438	902.0975341796875	143.5808868408203	871.4490356445312	840.7509765625	213.9879913330078	852.1201782226562	792.954345703125	283.5685424804688	1035.607177734375	798.3540649414062	138.6418914794922	686.2262573242188	871.802490234375	114.4616622924805	769.8372802734375	842.3200073242188	173.6974639892578	763.1852416992188	791.1885986328125	292.0441589355469	1681.552612304688	1117.857543945312	119.820915222168	1691.559204101562	988.0642700195312	116.4888458251953	1712.3095703125	1113.285766601562	286.8864135742188	1651.468872070312	983.662353515625	287.1855773925781	962.2927856445312	1242.334716796875	263.7513427734375	965.6563720703125	897.7135620117188	147.7168121337891	988.2816772460938	935.6057739257812	170.4915161132812	976.8487548828125	1202.545654296875	179.4850311279297	504.4551696777344	1191.663818359375	222.6177215576172	642.3157958984375	1227.595458984375	298.1506042480469	49.29362869262695	1199.85546875	241.7119903564453	262.9348449707031	1207.865600585938	89.90179443359375	43.76394653320312	1209.530395507812	134.81982421875	43.02076721191406	1152.551025390625	198.3658142089844	41.7241325378418	1246.182495117188	342.6177062988281	46.11021041870117	1120.517333984375	145.8539733886719	527.8914794921875	915.0720825195312	167.3930358886719	800.0968017578125	893.9663696289062	228.6580200195312	45.29843139648438	890.2388305664062	165.6283111572266	405.6497192382812	901.04345703125	17.75539398193359	39.92022323608398	946.9331665039062	82.04738616943359	48.21665954589844	980.5382080078125	103.1806945800781	45.59612655639648	885.2274169921875	280.6111145019531	48.70989227294922	942.6234741210938	
639	6.38	344.8317260742188	1031.653930664062	964.7320556640625	376.720703125	1020.604797363281	1136.510009765625	360.7163696289062	1085.838500976562	1058.219116210938	117.7888870239258	1292.494262695312	1084.548828125	382.9849548339844	1217.750610351562	1065.867553710938	332.8308410644531	1486.726684570312	1068.3125	150.116943359375	1406.613159179688	1080.210571289062	386.3414611816406	1344.936889648438	992.8197021484375	361.9260559082031	1450.8505859375	1167.369750976562	265.9086608886719	1463.510009765625	1246.651123046875	282.0532836914062	1339.115478515625	1327.945556640625	244.1312713623047	1129.489135742188	1363.258056640625	294.9791259765625	1102.740234375	1273.255249023438	108.3553771972656	907.0029907226562	1321.330200195312	171.352783203125	886.6259765625	1372.855712890625	208.5716400146484	1024.738037109375	1377.992553710938	62.90924835205078	729.6151123046875	1308.040771484375	122.8110961914062	813.05224609375	1375.895751953125	70.44868469238281	831.96142578125	1332.529663085938	257.4219055175781	1448.003540039062	899.1486206054688	265.83349609375	1378.46728515625	837.8616943359375	296.2230529785156	1116.238159179688	806.5487670898438	275.65283203125	1093.359619140625	901.5889892578125	141.4644927978516	871.1029052734375	840.1394653320312	211.9022064208984	851.9415283203125	792.3460693359375	281.1419067382812	1035.527221679688	797.8766479492188	136.7763977050781	685.8639526367188	871.0081176757812	112.5070037841797	769.4465942382812	841.5985717773438	171.7506561279297	762.9512329101562	790.4767456054688	290.6024780273438	1681.061401367188	1117.662963867188	118.0793304443359	1691.511108398438	988.4779052734375	115.0877380371094	1712.155395507812	1113.431762695312	285.1583557128906	1651.243041992188	983.4246215820312	284.2207641601562	962.278564453125	1241.77783203125	261.0326538085938	965.10107421875	897.1561889648438	144.9570465087891	987.7650146484375	934.9906005859375	167.4911956787109	976.8729248046875	1202.0400390625	178.2031707763672	504.2057800292969	1191.390014648438	220.7795257568359	642.1693115234375	1227.141357421875	298.0798034667969	49.31760406494141	1199.766357421875	241.1625518798828	262.925048828125	1207.719116210938	89.90031433105469	43.75766372680664	1209.580932617188	134.7606658935547	43.03105926513672	1152.4931640625	198.3088073730469	41.75098037719727	1246.112670898438	342.5579833984375	46.17563629150391	1120.45849609375	146.1691589355469	526.9853515625	913.981689453125	165.7728729248047	799.4115600585938	893.2837524414062	228.7810211181641	44.79250717163086	890.2517700195312	166.1154022216797	404.8573913574219	900.685791015625	17.6021900177002	39.88167190551758	947.1024169921875	82.07799530029297	47.90914154052734	980.6721801757812	103.3233489990234	45.35845947265625	885.3927001953125	280.7990112304688	47.94952392578125	942.6270141601562	
640	6.390000000000001	342.2102355957031	1031.297241210938	964.03125	373.9622802734375	1020.375793457031	1135.947998046875	357.9811096191406	1085.261840820312	1057.416748046875	115.7163543701172	1292.385375976562	1083.811645507812	380.8035278320312	1217.30078125	1064.833251953125	331.0519714355469	1486.3369140625	1067.73876953125	148.2438812255859	1406.468383789062	1079.62353515625	384.2305603027344	1344.558715820312	991.9406127929688	360.1855773925781	1450.241943359375	1166.703247070312	264.2556457519531	1462.77978515625	1246.135986328125	280.3180541992188	1338.038696289062	1326.961181640625	242.1369934082031	1128.344360351562	1361.576904296875	292.7427368164062	1101.858642578125	1271.357299804688	106.0771026611328	906.0908203125	1319.266967773438	169.185546875	885.5076293945312	1370.5654296875	206.5128936767578	1023.5888671875	1376.050659179688	60.92374801635742	728.7489624023438	1306.03369140625	120.6073989868164	811.9496459960938	1373.524536132812	68.12194061279297	831.0812377929688	1330.396240234375	255.4089660644531	1447.990234375	898.507568359375	263.6396179199219	1378.508422851562	837.082275390625	293.7189636230469	1116.103393554688	805.9647827148438	273.2261962890625	1093.290161132812	901.049072265625	139.3122253417969	870.7788696289062	839.4862060546875	209.7868957519531	851.7827758789062	791.7072143554688	278.6762390136719	1035.467041015625	797.3709716796875	134.8336029052734	685.5265502929688	870.1541748046875	110.507194519043	769.0864868164062	840.8290405273438	169.7719573974609	762.7374877929688	789.7298583984375	289.2124633789062	1680.582397460938	1117.45458984375	116.4047470092773	1691.5341796875	988.880126953125	113.7527084350586	1712.039428710938	1113.579467773438	283.474853515625	1651.061401367188	983.1665649414062	281.2474975585938	962.2843017578125	1241.198486328125	258.4129943847656	964.64404296875	896.565185546875	142.2709350585938	987.309814453125	934.2950439453125	164.4793548583984	976.8982543945312	1201.457763671875	176.9427947998047	503.9873046875	1191.085571289062	218.9155883789062	642.0538940429688	1226.669067382812	298.019287109375	49.36374282836914	1199.693481445312	240.6640625	262.9267578125	1207.577880859375	89.90123748779297	43.75406646728516	1209.625610351562	134.7089996337891	43.03746032714844	1152.439453125	198.250732421875	41.78506851196289	1246.040649414062	342.5025634765625	46.24690628051758	1120.402709960938	146.66162109375	526.1525268554688	912.9059448242188	164.2650146484375	798.7841186523438	892.5319213867188	228.8648986816406	44.39640045166016	890.39306640625	166.7576293945312	404.1513977050781	900.3817138671875	17.44427490234375	39.91147994995117	947.2901000976562	82.084228515625	47.62496185302734	980.8563842773438	103.4252624511719	45.21478652954102	885.6146850585938	280.9701538085938	47.29480743408203	942.7667236328125	
641	6.4	339.6672668457031	1031.029541015625	963.3544921875	371.2247619628906	1020.207946777344	1135.416870117188	355.2534790039062	1084.724243164062	1056.645263671875	113.6801528930664	1292.31884765625	1083.056762695312	378.6627807617188	1216.897338867188	1063.781616210938	329.3094482421875	1485.98388671875	1067.144775390625	146.4039764404297	1406.371459960938	1079.01513671875	382.1521606445312	1344.217163085938	991.03564453125	358.4782409667969	1449.6669921875	1166.014038085938	262.6361389160156	1462.069458007812	1245.59326171875	278.6246032714844	1336.971923828125	1325.943481445312	240.2355041503906	1127.198120117188	1359.816528320312	290.6036376953125	1101.010009765625	1269.35791015625	103.9631652832031	905.1244506835938	1317.146118164062	167.2092590332031	884.3666381835938	1368.205932617188	204.5845947265625	1022.427062988281	1374.029663085938	59.01778030395508	727.8695678710938	1303.827270507812	118.6407470703125	810.7962646484375	1371.085571289062	66.00640106201172	830.121337890625	1328.204345703125	253.4248962402344	1448.009155273438	897.84228515625	261.4641418457031	1378.58251953125	836.2744140625	291.1771545410156	1115.989135742188	805.35400390625	270.8026123046875	1093.246948242188	900.4844360351562	137.126220703125	870.4834594726562	838.802978515625	207.64013671875	851.6552734375	791.0388793945312	276.1686706542969	1035.437377929688	796.8428955078125	132.8352203369141	685.2199096679688	869.2457885742188	108.4788589477539	768.7598876953125	840.023193359375	167.7632141113281	762.5523681640625	788.9508666992188	287.868896484375	1680.1279296875	1117.234130859375	114.7985763549805	1691.6328125	989.2288208007812	112.4742813110352	1711.957885742188	1113.730346679688	281.8352355957031	1650.931762695312	982.8912963867188	278.2862243652344	962.316162109375	1240.602172851562	255.9015045166016	964.2938842773438	895.95068359375	139.6771240234375	986.9172973632812	933.5208740234375	161.4732055664062	976.9262084960938	1200.799194335938	175.7111053466797	503.7935485839844	1190.756103515625	217.0517120361328	641.97216796875	1226.187622070312	297.9684143066406	49.43233108520508	1199.638305664062	240.2031097412109	262.945068359375	1207.444458007812	89.90216827392578	43.75150299072266	1209.66259765625	134.6643524169922	43.04066467285156	1152.391967773438	198.1921234130859	41.82203674316406	1245.969848632812	342.4559631347656	46.32571029663086	1120.354858398438	147.3410491943359	525.4049682617188	911.885986328125	162.8692016601562	798.2227172851562	891.7427978515625	228.9243774414062	44.10890197753906	890.6346435546875	167.5677337646484	403.547607421875	900.1122436523438	17.28628921508789	39.96836090087891	947.47119140625	82.06809234619141	47.36326599121094	981.0665893554688	103.4887161254883	45.1450309753418	885.8673095703125	281.1202087402344	46.77066421508789	943.0100708007812	
